<svg id="logo" xmlns="http://www.w3.org/2000/svg" width="198" height="133" viewBox="0 0 198 133">
  <metadata><?xpacket begin="﻿" id="W5M0MpCehiHzreSzNTczkc9d"?>
<x:xmpmeta xmlns:x="adobe:ns:meta/" x:xmptk="Adobe XMP Core 5.6-c138 79.159824, 2016/09/14-01:09:01        ">
   <rdf:RDF xmlns:rdf="http://www.w3.org/1999/02/22-rdf-syntax-ns#">
      <rdf:Description rdf:about=""/>
   </rdf:RDF>
</x:xmpmeta>
                                                                                                    
                                                                                                    
                                                                                                    
                                                                                                    
                                                                                                    
                                                                                                    
                                                                                                    
                                                                                                    
                                                                                                    
                                                                                                    
                                                                                                    
                                                                                                    
                                                                                                    
                                                                                                    
                                                                                                    
                                                                                                    
                                                                                                    
                                                                                                    
                                                                                                    
                                                                                                    
                           
<?xpacket end="w"?></metadata>
<defs>
    <style>
      .cls-1 {
        fill: #f9d29f;
      }

      .cls-1, .cls-2, .cls-3 {
        fill-rule: evenodd;
      }

      .cls-2 {
        fill: #5c2913;
      }

      .cls-3 {
        fill: #a4091e;
      }
    </style>
  </defs>
  <path class="cls-1" d="M297.842,1545.25h-16.2s-7.783,17.63-18.679,17.63H166.434c-10.9,0-18.68-17.63-18.68-17.63s-9.666-1.1-16.2-1.1-14.782-9.53-14.782-9.53v-45.55c0-10.61,8.571-12.48,8.571-12.48l16.812-.63a23.6,23.6,0,0,1,1.867-7.49c1.557-3.12,9.652-9.05,13.076-11.24s24.283-1.87,24.283-1.87,0-1.87,9.34-11.24,22.415-11.23,22.415-11.23h5.6a34.787,34.787,0,0,1,20.215,10.13c9.339,9.37,7.139,12.34,7.139,12.34s15.471-2.76,26.483,1.87c7.37,3.1,12.619,8.12,14.176,11.24s0.768,7.49.768,7.49l19.011,0.77s6.372,1.73,6.372,12.34v42.48S305.153,1545.25,297.842,1545.25Z" transform="translate(-116 -1431)"/>
  <path class="cls-2" d="M308.935,1541.42c-3.2,3.12-7.71,4.07-12.759,4.06H282.49l0.013,0.14c0,7.7-9.186,18.03-17.876,18.37H165.362c-8.69-.34-17.877-10.67-17.877-18.37l0.014-.14H133.827c-5.064.01-9.576-.94-12.773-4.06a17.115,17.115,0,0,1-5.043-12.49v-41.91a12.013,12.013,0,0,1,3.459-8.68,12.409,12.409,0,0,1,8.823-3.39h13.5a30.725,30.725,0,0,1-.175-3.28c0-4.04,2.378-7.25,5.359-9.57a39.373,39.373,0,0,1,10.678-5.56,131.9,131.9,0,0,1,17.929-4.7,56.475,56.475,0,0,1,7.226-1.16l1.531-.24a33.211,33.211,0,0,1,7.158-10.14,34.306,34.306,0,0,1,46.994,0,33.215,33.215,0,0,1,7.159,10.14c0.51,0.08,1.034.16,1.531,0.24a56.432,56.432,0,0,1,7.225,1.16,131.37,131.37,0,0,1,17.93,4.7,39.388,39.388,0,0,1,10.678,5.56c2.981,2.32,5.358,5.53,5.358,9.57a30.718,30.718,0,0,1-.174,3.28h13.5a12.413,12.413,0,0,1,8.824,3.39,12.043,12.043,0,0,1,3.465,8.68v41.91A17.129,17.129,0,0,1,308.935,1541.42Zm2.565-54.47c0-5.57-3.935-9.45-9.643-9.45h-16.52l0.282-2.06a24.068,24.068,0,0,0,.269-3.84c-0.054-3.44-2.431-6.34-6.326-8.79l-0.282-.09c-0.282-.21-0.591-0.42-0.913-0.62a46.03,46.03,0,0,0-6.769-3.04,53.076,53.076,0,0,0-15.634-2.2,56.732,56.732,0,0,0-11.093,1.06,29.725,29.725,0,0,0-8.542-15.51,30.213,30.213,0,0,0-42.669,0,29.783,29.783,0,0,0-8.528,15.51,56.993,56.993,0,0,0-11.107-1.06,53.076,53.076,0,0,0-15.634,2.2,46.656,46.656,0,0,0-6.769,3.04c-0.322.2-.631,0.41-0.913,0.62l-0.282.09c-3.895,2.45-6.272,5.35-6.326,8.79a24.068,24.068,0,0,0,.269,3.84l0.282,2.06h-16.52c-5.7,0-9.63,3.88-9.63,9.45v41.91c0,8.66,6.259,13.93,15.164,13.93h16.452c-0.537,5.58,3.975,18.54,17.581,18.54H262.29c13.6,0,18.118-12.96,17.581-18.54h16.452c8.905,0,15.177-5.27,15.177-13.93v-41.91Zm-150.49,20.38c0.967,0,4.634.02,5.762-.08a0.922,0.922,0,0,1,.053.3v0.07a9.245,9.245,0,0,0-1.369,2.03c-2.633,5.55-4.016,10.84-5.789,15.19-2.4,5.85-5.1,10.65-10.892,11.65a5.7,5.7,0,0,1-1.787.11c-1.625-.34-2.672-0.82-2.336-2.54s4.539,0.16,6.46-.49c1.531-.51,2.9-2.22,3.707-3.63a4.583,4.583,0,0,0,.725-2.08c0.779-3.23-.645-5.66-1.827-9.82-0.738-2.61-1.585-5.19-2.431-7.45a9.251,9.251,0,0,0,2.471-1.86,89.551,89.551,0,0,1,3.761,12.87S161.077,1512.91,161.01,1507.33Zm-22.362,2.37a24.36,24.36,0,0,1-4.056.27c0-3.29-.027-6.45-0.027-6.96-0.094-3.85-.147-6.12-0.2-7.84a10.538,10.538,0,0,0-.2-2.35,3.263,3.263,0,0,0-2.028-1v-1.12h5.05c1.33-.05,2.619-0.16,3.787-0.26l0.175-.02c1.692-.14,3.291-0.08,4.822-0.08a12.889,12.889,0,0,1,5.869,1.15c2.834,1.43,4.365,4.43,4.177,8.24-0.228,4.54-2.23,8.34-6.474,10.18a20.707,20.707,0,0,1-5.439,1.36,37.709,37.709,0,0,1-5.251.34H138.7a131.032,131.032,0,0,0,1.249,14.28h-6.528a32.842,32.842,0,0,0,1.142-8.33c0.027-.9.041-3.19,0.041-5.69a3.344,3.344,0,0,0-.873-0.03c-1.881.26-2.176,1.32-2.176,1.32s-1.008,2.89-2.767,1.79c-1.84-1.74,1.572-3.3,1.572-3.3l0.765-.28a17.519,17.519,0,0,1,3.962-.66c0.309-.03.645-0.07,0.994-0.11,0.832-.09,1.746-0.15,2.592-0.22l2.458-.24a13.2,13.2,0,0,0,1.517-.22,9.242,9.242,0,0,0,7.589-6.37c1.276-3.87.9-7.65-1.464-9.78a7.587,7.587,0,0,0-5.265-1.75c-0.739,0-1.518.24-2.364,0.27-0.47.02-2.592,0.07-2.592,0.07l-0.014.13c-0.295,3.54.081,16.46,0.081,16.46S138.635,1509.22,138.648,1509.7Zm157.931-7.8a4.659,4.659,0,0,1-.766.65,5.629,5.629,0,0,1-.887.51,8.27,8.27,0,0,1-1.007.39c-0.363.11-.725,0.21-1.1,0.29a10.976,10.976,0,0,1-1.155.18,10.094,10.094,0,0,1-1.236.07,11.122,11.122,0,0,1-1.276-.08c-0.443-.04-0.9-0.11-1.356-0.18s-0.94-.15-1.424-0.23-0.98-.16-1.477-0.24l0.013-.02a5,5,0,0,1,.86-1.45,2.824,2.824,0,0,1,.846-0.68,2.007,2.007,0,0,1,.927-0.25c0.322,0.06.631,0.13,0.94,0.19s0.631,0.11.927,0.16,0.617,0.09.926,0.12,0.6,0.06.9,0.08,0.591,0.02.887,0.02,0.591-.01.886-0.02a8.285,8.285,0,0,0,.859-0.08,8,8,0,0,0,.833-0.14,10.886,10.886,0,0,0,1.572-.47,9.683,9.683,0,0,0,1.4-.67l-0.013.14A5.032,5.032,0,0,1,296.579,1501.9Zm-14.371,5.74-0.256-.6s1.693-.08,3.439-0.24a2.133,2.133,0,0,1,1.732.6,4.242,4.242,0,0,1,.322,2.35c-0.107,3.68-.819,10.62.753,12.99a2.686,2.686,0,0,0,4.338.68,6.411,6.411,0,0,0,1.665-4.15c-0.08-3.66-.013-9.17-0.322-11.77l0.013-.21a2.26,2.26,0,0,1,1.236-.27c0.819,0,2.283.03,3.022,0.04-0.027,6.05-.793,14.7.51,19.26-0.282,0-.913.02-1.168,0.04h-0.068c-1.974.12-2.659-.97-2.753-1.73l0.014-.76v-0.97c-1.074,2.19-2.579,3.92-5.507,3.95-3.787.05-5.171-2.63-5.547-6.19-0.4-3.97.551-12.13-.228-12.87A1.536,1.536,0,0,0,282.208,1507.64Zm10.581,32.17H137.2c-8.353,0-14.182-6.74-14.182-13.07v-39.35c0-2.62,2.739-5.45,7.2-5.45,0,0,8.392.02,10.353,0.02,7.575,0,11.926-1.07,10.959-2.99s-2.955-4.73-2.323-8.64,4.459-6.6,6.822-7.63a30.1,30.1,0,0,1,18.078-1.78c9.321,1.77,4.66,5.85-.954,6.91s-5.184.37-5.184,0.37c3.519-1.53,4.231-4.47-.107-5.28s-12.289-.32-15.687,4.16,2.122,9.88,4.566,12.52c2.243,2.41-4.1,3.58-16.358,3.69-1.1.01-8.97,0.01-10.165,0.01-3.183,0-5.937,1.93-5.937,4.09v39.35c0,5.85,5.184,11.9,12.92,11.9h155.59c7.736,0,12.92-6.05,12.92-11.9v-39.35c0-2.16-2.753-4.29-5.936-4.29-1.2,0-9.064-.01-10.165-0.01-12.262-.11-18.6-1.08-16.358-3.49,2.444-2.64,7.964-8.04,4.566-12.52s-11.336-4.96-15.687-4.16-3.626,3.75-.107,5.28c0,0,.443.69-5.185-0.37s-10.274-5.14-.953-6.91a30.094,30.094,0,0,1,18.077,1.78c2.364,1.03,6.178,3.72,6.823,7.63s-1.356,6.71-2.323,8.64,3.384,2.99,10.959,2.99c1.961,0,10.353-.02,10.353-0.02,4.459,0,7.212,2.83,7.212,5.45v39.35C306.985,1533.07,301.143,1539.81,292.789,1539.81Zm-28.149-32.17-0.255-.6s1.693-.08,3.439-0.24a2.117,2.117,0,0,1,1.732.6,4.242,4.242,0,0,1,.322,2.35c-0.107,3.68-.819,10.62.739,12.99a2.7,2.7,0,0,0,4.352.68,6.479,6.479,0,0,0,1.665-4.15c-0.081-3.66-.014-9.17-0.322-11.77l0.013-.21a2.26,2.26,0,0,1,1.236-.27c0.819,0,2.283.03,3.022,0.04-0.014,6.05-.806,14.7.523,19.26-0.281,0-.926.02-1.195,0.04h-0.053c-1.975.12-2.66-.97-2.754-1.73l0.013-.76v-0.97c-1.074,2.19-2.578,3.92-5.506,3.95-3.787.05-5.171-2.63-5.533-6.19-0.417-3.97.537-12.13-.242-12.87A1.539,1.539,0,0,0,264.64,1507.64Zm-15.136.01c1.263-.12,3.331-0.36,4.473-0.59,0.147,1.99.147,7.36,0.174,8.16a38.7,38.7,0,0,0,5.2-5.01c0.953-1.16,1.437-2.48,1.048-2.75l3.424-.5c0.175,0.6-1.813,2.38-1.813,2.38s-3.438,3.9-5.171,5.47c1.129,1.56,1.975,3.25,3.251,5,1.732,2.4,3.115,4.64,5.842,6.93-0.134.02-.282,0.05-0.457,0.08a5.062,5.062,0,0,1-4.606-1.15,105.025,105.025,0,0,1-6.541-9.38,68.515,68.515,0,0,0-.067,7.38,11.129,11.129,0,0,0,.591,2.94h-4.97c1.061-1.02.712-8.38,0.7-13.83A13.157,13.157,0,0,0,249.5,1507.65Zm-6.514,17.03a6.518,6.518,0,0,0,5.332-2.15c0.377,3.18-3.747,4.72-5.976,4.68-5.426-.08-8.5-4.46-8.6-9.6-0.148-7.07,5.466-12.19,13.753-9.96v2.75a0.656,0.656,0,0,1-.618.05,4.46,4.46,0,0,0-5.493-1.37C235.993,1511.42,236.692,1524.01,242.99,1524.68Zm-13.846-15.67a12.983,12.983,0,0,1,2.592,7.88c0.107,5.04-1.921,10.23-8.583,10.09a11.135,11.135,0,0,1-3.68-.51,5.515,5.515,0,0,1-3.72-3.95,9.366,9.366,0,0,1-.228-1.49,116.555,116.555,0,0,1-.081-11.83,39.52,39.52,0,0,1,.067-5.56,7.451,7.451,0,0,1,.7-2.67,6.306,6.306,0,0,1,1.6-2.44,9.164,9.164,0,0,1,4.3-2.47,5.912,5.912,0,0,1,6.245,1.81,5.027,5.027,0,0,1-.363,5.96,7.387,7.387,0,0,1-3.988,2.48c-2.566.68-4.151,0.05-4.11-.14-0.014-.31,1.477-0.53,3.25-1.62a6.042,6.042,0,0,0,2.323-2.19,2.825,2.825,0,0,0,.094-2.8c-0.873-1.3-3.518-1.34-5.211.13-0.094.12-.188,0.23-0.242,0.29-0.939.88-.9,2.66-0.926,3.84a51.061,51.061,0,0,0,.161,6.26C220.991,1507.1,226.188,1505.5,229.144,1509.01Zm-8.072,15.51a3.35,3.35,0,0,0,3.935.5c3.948-2.23,3.908-17.44-2.874-15.41a4.145,4.145,0,0,0-1.666,1.4C218.923,1513.67,219.393,1522.64,221.072,1524.52Zm-6.3-33.92c-7.24,0-14.479-2.26-20-7.62a26.974,26.974,0,0,1-8.287-19.47,27.4,27.4,0,0,1,8.448-19.77,29.05,29.05,0,0,1,20.293-8.18,28.621,28.621,0,0,1,19.985,8.02,27.066,27.066,0,0,1,8.3,19.48,27.485,27.485,0,0,1-8.461,19.77A28.672,28.672,0,0,1,214.773,1490.6Zm-22.6-38.93a24.588,24.588,0,0,0-3.049,11.84,24.325,24.325,0,0,0,7.481,17.54c5,4.85,11.564,6.88,18.172,6.88a26.188,26.188,0,0,0,16.277-5.14,22.124,22.124,0,0,1-10.9,3.81,26.041,26.041,0,0,1-5.372.06c-4.526-.24-8.65-1.2-12.33-3.84a27.617,27.617,0,0,1-4.271-3.38C190.356,1471.8,188.261,1460.45,192.169,1451.67Zm18.467-5.45v-0.08l0.107-.09c0.457-.01,2.458-0.05,2.955-0.07,0.981-.04,1.907-0.08,2.767-0.08,2.163,0,4.405.22,6.165,1.85,2.78,2.55,3.209,7.07,1.719,11.69a10.82,10.82,0,0,1-3.949,5.6,7.73,7.73,0,0,1-1.343.82,12.461,12.461,0,0,1-3.1,1.11,22.815,22.815,0,0,1-3,.58c-1.383.16-3.156,0.41-4.794,0.45-0.792.02-1.518,0.06-2.149,0.11v0.04a3.684,3.684,0,0,0-.47,0c-1.008.09-1.8,0.2-2.4,0.31a11.576,11.576,0,0,0-1.2.34l-0.9.33s-4,1.87-1.84,3.96c2.068,1.31,3.25-2.15,3.25-2.15s0.349-1.27,2.538-1.58a3.657,3.657,0,0,1,1.021.04c0,2.99-.014,5.73-0.041,6.81a50.778,50.778,0,0,1-.59,6.68,20.655,20.655,0,0,0,6.742,2.36c-0.7-4.29-1.088-11.88-1.276-16.17a36.973,36.973,0,0,0,6.339-.41,23.624,23.624,0,0,0,6.339-1.62c4.983-2.2,7.32-6.74,7.575-12.17,0.229-4.56-1.558-8.16-4.888-9.86a14.692,14.692,0,0,0-6.863-1.38c-1.68,0-3.4.18-5.225,0.3-1.289.09-3.868,0.18-5.171,0.21a47.514,47.514,0,0,1-7.816-.3v0.02l0.013,0.84c0.027,0.28.067,0.28,0.148,0.28h0.335l0.256-.01a4.361,4.361,0,0,1,.51.03,5.517,5.517,0,0,1,.86.14,4.187,4.187,0,0,1,.819.33,2.413,2.413,0,0,1,.671.56,2.954,2.954,0,0,1,.5.93,6.826,6.826,0,0,1,.336,1.61l0.188,1.74c0.041,1.95.108,4.52,0.2,8.48,0.014,0.59.027,4.13,0.041,7.92,1.209-.1,2.968-0.21,4.741-0.27-0.014-.35-0.014-0.55-0.014-0.55S210.3,1450.44,210.636,1446.22Zm22.765-.71a26.061,26.061,0,0,0-18.172-7.28,26.757,26.757,0,0,0-10.892,2.32,27.271,27.271,0,0,1,27.613,6.26c9.576,9.35,10.208,24.34,2.055,33.3a24.735,24.735,0,0,0,6.864-17.05A24.333,24.333,0,0,0,233.4,1445.51Zm-31.025,58.17a1.52,1.52,0,1,1,1.518,1.45A1.481,1.481,0,0,1,202.376,1503.68Zm6.783,1.45a1.447,1.447,0,1,1,1.517-1.45A1.481,1.481,0,0,1,209.159,1505.13Zm3.263,17.74a1.485,1.485,0,0,1,.726-0.01c-1.182,4.33-8.059,5.11-11.363,2.52s-3.76-7.89-2.928-11.74a8.434,8.434,0,0,1,7.911-6.77,6.361,6.361,0,0,1,6.756,7.17c-2.7.36-8.421,0.07-11.134,0.21C200.456,1523.22,207.709,1526.88,212.422,1522.87Zm-2.094-9.94c0.523-3.09-1.545-4.28-3.667-4.01a4.722,4.722,0,0,0-4.083,4.19C203.921,1512.87,209.468,1513.43,210.328,1512.93Zm-17.233-5.77c1.894,6.53,3.6,14.48,6.662,19.26-0.752.04-2,.08-3.142,0.05a3.351,3.351,0,0,1-1.719-.38,1.544,1.544,0,0,1-.39-0.58c-0.484-1.28-1.477-4.59-2.069-6.71-0.792-2.82-1.6-5.76-2.39-8.41-1.666,4.79-5.735,16.11-5.735,16.11H182.23c3.049-5.8,5.171-12.58,7.307-19.34H193.1Zm-14.383-5.27c-6.689.94-7.508,3.3-7.562,7.3,2.176-2.37,6.783-3.31,9.549-.18a12.543,12.543,0,0,1,2.686,7.88c0.108,4.33-1.45,8.75-6.285,9.83l-0.3.04c-7.292,1.04-8.461-3.94-8.931-5.96a8.991,8.991,0,0,1-.174-1.38,30.936,30.936,0,0,1-.4-5.46c0.013-5.43.993-8.16,4.929-12.4,1.88-2.01,4-3.15,7.789-3.49,1.666-.15,3.183-0.72,3.183-1.82h1.142l-0.927,2.39C182.459,1501.13,180.78,1501.59,178.712,1501.89Zm-7.293,18.89s0,4.28,3.559,4.28a2.954,2.954,0,0,0,1.974-.47l0.135-.12,0.026-.02c3.345-3.53,2.888-16.74-3.72-14.84l-0.04.02c-0.269.14-1.948,1.09-2.055,4.26C171.177,1517.34,171.419,1520.78,171.419,1520.78Z" transform="translate(-116 -1431)"/>
  <path class="cls-3" d="M265.09,1558.83H166.145c-4.015,0-6.85-3.41-6.85-7.86s2.835-8.28,6.85-8.28H265.09c4.015,0,6.85,3.82,6.85,8.28S269.105,1558.83,265.09,1558.83Zm-92.164-9.2a1.637,1.637,0,0,0,1.321-1.52c0-1.4-1.214-1.68-2.333-1.68-0.322,0-1.167.04-2.095,0.04-0.905,0-1.417-.04-1.7-0.04a0.714,0.714,0,0,0,0,.42,2.184,2.184,0,0,1,.619.12,0.479,0.479,0,0,1,.322.53c0.023,0.65.023,1.37,0.023,2.62,0,1.37,0,2.31-.023,2.62a0.535,0.535,0,0,1-.3.55,3.124,3.124,0,0,1-.762.16,0.622,0.622,0,0,0-.012.42c0.81,0,2.786.06,3.31,0.06a5.222,5.222,0,0,0,2.036-.36,2.139,2.139,0,0,0,1.428-2.05c0-1.07-.762-1.6-1.833-1.82A0.043,0.043,0,0,1,172.926,1549.63Zm7.25,2.83a0.114,0.114,0,0,0-.071-0.08,1.911,1.911,0,0,1-1.274.48,1.466,1.466,0,0,1-1.286-.64,2.593,2.593,0,0,1-.369-1.39c0-.94.369-1.5,0.893-1.5a2.188,2.188,0,0,1,1.3.92,0.271,0.271,0,0,0,.179.02,2.061,2.061,0,0,0,.56-0.74,0.426,0.426,0,0,0,0-.24,0.766,0.766,0,0,0-.417-0.35,2.6,2.6,0,0,0-1.024-.16,3.778,3.778,0,0,0-1.774.52,2.529,2.529,0,0,0-1.2,2.13,2.715,2.715,0,0,0,.512,1.7,2.12,2.12,0,0,0,1.8.85,2.689,2.689,0,0,0,2.1-1.07A0.835,0.835,0,0,0,180.176,1552.46Zm2.5-5.61a0.6,0.6,0,0,0-.452-0.16,1.228,1.228,0,0,0-.762.27,0.977,0.977,0,0,0-.048.52,0.754,0.754,0,0,0,.345.48,1.32,1.32,0,0,0,.715-0.07,0.844,0.844,0,0,0,.285-0.64A1.12,1.12,0,0,0,182.676,1546.85Zm2.143,0a0.661,0.661,0,0,0-.464-0.16,1.261,1.261,0,0,0-.762.27,1.114,1.114,0,0,0-.048.52,0.849,0.849,0,0,0,.345.48,1.32,1.32,0,0,0,.715-0.07,0.805,0.805,0,0,0,.285-0.64A1.077,1.077,0,0,0,184.819,1546.85Zm0.345,3.7a1.915,1.915,0,0,0-1.893-1.77,2.919,2.919,0,0,0-1.429.41,2.578,2.578,0,0,0-1.119,2.2,2.776,2.776,0,0,0,.715,2,2.139,2.139,0,0,0,1.595.59,2.987,2.987,0,0,0,2.191-1.12,1.515,1.515,0,0,0,.059-0.4,0.156,0.156,0,0,0-.059-0.08,2.079,2.079,0,0,1-1.369.47,1.511,1.511,0,0,1-1.132-.41,1.647,1.647,0,0,1-.452-1,0.171,0.171,0,0,1,.048-0.12,23.057,23.057,0,0,0,2.952-.27,0.819,0.819,0,0,0,.072-0.33A0.339,0.339,0,0,1,185.164,1550.55Zm5.607-1.69a0.106,0.106,0,0,0-.107-0.08,5.008,5.008,0,0,0-1.095.55,0.134,0.134,0,0,0-.024.12,0.594,0.594,0,0,1,.024.58c-0.31.85-.75,2.03-0.988,2.55a1.044,1.044,0,0,1-1.012.87,0.634,0.634,0,0,0,.012.42c0.214,0,.666-0.04,1-0.04,0.285,0,.928.04,1.131,0.04a0.663,0.663,0,0,0,.071-0.42,2.672,2.672,0,0,1-.512-0.15c-0.154-.07-0.214-0.2-0.131-0.52,0.1-.35.441-1.4,0.667-2.03a0.033,0.033,0,0,1,.059,0c0.227,0.53.715,1.8,0.9,2.36,0.048,0.17,0,.21-0.047.23a2.107,2.107,0,0,1-.31.11,0.846,0.846,0,0,0,.048.42c0.226-.02.821-0.04,1.178-0.04s1.25,0.02,1.584.04a0.727,0.727,0,0,0,.024-0.42,0.959,0.959,0,0,1-.953-0.72C192.01,1552.08,191.14,1549.88,190.771,1548.86Zm13,4.59a2.97,2.97,0,0,0-.357-0.08,0.4,0.4,0,0,1-.334-0.46c-0.012-.31-0.024-0.92-0.024-1.58-0.011-.54,0-1.21.012-1.53a0.332,0.332,0,0,1,.31-0.39c0.083-.02.214-0.06,0.3-0.07a1.347,1.347,0,0,0,0-.43c-0.441.01-.869,0.04-1.358,0.04-0.333,0-1.154-.03-1.345-0.03a0.911,0.911,0,0,0-.024.41,1.015,1.015,0,0,1,.286.08,0.3,0.3,0,0,1,.262.33c0.012,0.4.012,1.05,0.012,1.48a1.318,1.318,0,0,1-.476.08,0.668,0.668,0,0,1-.739-0.79,7.347,7.347,0,0,1,.012-0.89c0.012-.18.06-0.23,0.346-0.29a0.642,0.642,0,0,0,0-.42c-0.1,0-.524.04-1.143,0.04-0.715,0-1.155-.04-1.322-0.04a0.333,0.333,0,0,0-.016.04c0-.01,0-0.03-0.007-0.04-0.358.01-.762,0.04-1.155,0.04-0.441,0-.834-0.04-1.084-0.04a1.3,1.3,0,0,0-.059.42,1.656,1.656,0,0,1,.536.13,0.312,0.312,0,0,1,.2.4,12.424,12.424,0,0,1-.738,2.15h-0.048c-0.143-.34-0.726-1.81-0.893-2.34a0.209,0.209,0,0,1,.084-0.23,1.492,1.492,0,0,1,.357-0.11,1.21,1.21,0,0,0-.024-0.42c-0.345.01-.679,0.04-1.381,0.04-0.774,0-1.381-.04-1.536-0.04a1.38,1.38,0,0,0-.071.42,2.091,2.091,0,0,1,.428.11c0.334,0.12.441,0.31,0.786,1.16,0.44,1.04.881,2.14,1.167,2.83a2.534,2.534,0,0,0,.166.31,13.311,13.311,0,0,1-1.666,2.31,0.458,0.458,0,0,0-.012.26,1.507,1.507,0,0,0,.821.37l0.143-.04c0.083-.16.274-0.5,0.417-0.79a46.483,46.483,0,0,0,2.619-5.67,1.051,1.051,0,0,1,.512-0.72,1.539,1.539,0,0,1,.441-0.13v-0.01a2.094,2.094,0,0,1,.309.08,0.331,0.331,0,0,1,.262.34c0,0.4-.012.71-0.012,0.98a1.12,1.12,0,0,0,.369.94,1.713,1.713,0,0,0,1.107.31,3.225,3.225,0,0,0,1.31-.31c0,0.5.012,0.96-.012,1.3a0.344,0.344,0,0,1-.226.38c-0.167.05-.322,0.07-0.524,0.11a0.63,0.63,0,0,0,.024.42c0.19-.02,1.059-0.04,1.464-0.04,0.429,0,1.143.04,1.476,0.04A0.756,0.756,0,0,0,203.772,1553.45Zm8.881,0a3.2,3.2,0,0,0-.369-0.08,0.389,0.389,0,0,1-.321-0.46v-1.62c0-.54-0.012-1.2.012-1.51a0.292,0.292,0,0,1,.273-0.37,3.224,3.224,0,0,1,.334-0.07,1.037,1.037,0,0,0,0-.43c-0.441.01-.869,0.04-1.357,0.04-0.334,0-1.108-.03-1.3-0.03a0.848,0.848,0,0,0-.036.43c0.107,0.02.226,0.04,0.31,0.06a0.243,0.243,0,0,1,.2.26c0.024,0.25.024,1.29,0.024,1.65,0,0.73,0,1.81-.012,1.92a0.081,0.081,0,0,1-.071.05h-1.072a0.114,0.114,0,0,1-.083-0.11c-0.024-.46-0.024-1.25-0.024-1.9,0-.54,0-1.17.012-1.49a0.328,0.328,0,0,1,.2-0.37l0.262-.08a1.038,1.038,0,0,0,0-.43c-0.44.01-.738,0.04-1.214,0.04-0.607,0-1.107-.03-1.3-0.03a0.967,0.967,0,0,0-.024.42l0.274,0.06a0.273,0.273,0,0,1,.226.33c0.012,0.19.024,1.22,0.024,1.57,0,1-.012,1.83-0.036,1.94a0.058,0.058,0,0,1-.059.05c-0.417,0-.988,0-1.072-0.01a0.094,0.094,0,0,1-.071-0.07c-0.024-.32-0.024-1.21-0.024-1.92,0-.32.012-1.15,0.012-1.5,0-.26.059-0.35,0.214-0.39l0.238-.06a0.66,0.66,0,0,0,0-.43c-0.095,0-.4.04-1.25,0.04-0.714,0-1.155-.04-1.321-0.04a0.57,0.57,0,0,0-.036.4,2.49,2.49,0,0,1,.333.09,0.33,0.33,0,0,1,.262.34c0.012,0.48.012,1.05,0.012,1.54,0,0.55,0,1.24-.012,1.62a0.408,0.408,0,0,1-.333.49,1.869,1.869,0,0,0-.321.06,0.83,0.83,0,0,0,0,.42c0.154,0,.654-0.04,1.273-0.04h5.715c0.429,0,1.119.04,1.453,0.04A0.869,0.869,0,0,0,212.653,1553.45Zm5.06-2.9a1.916,1.916,0,0,0-1.893-1.77,2.916,2.916,0,0,0-1.429.41,2.576,2.576,0,0,0-1.119,2.2,2.775,2.775,0,0,0,.714,2,2.139,2.139,0,0,0,1.595.59,2.987,2.987,0,0,0,2.191-1.12,1.509,1.509,0,0,0,.06-0.4,0.158,0.158,0,0,0-.06-0.08,2.077,2.077,0,0,1-1.369.47,1.51,1.51,0,0,1-1.131-.41,1.636,1.636,0,0,1-.452-1,0.171,0.171,0,0,1,.047-0.12,23.076,23.076,0,0,0,2.953-.27,0.818,0.818,0,0,0,.071-0.33A0.34,0.34,0,0,1,217.713,1550.55Zm5.286,0a1.917,1.917,0,0,0-1.893-1.77,2.916,2.916,0,0,0-1.429.41,2.576,2.576,0,0,0-1.119,2.2,2.775,2.775,0,0,0,.714,2,2.14,2.14,0,0,0,1.6.59,2.986,2.986,0,0,0,2.19-1.12,1.509,1.509,0,0,0,.06-0.4,0.158,0.158,0,0,0-.06-0.08,2.077,2.077,0,0,1-1.369.47,1.51,1.51,0,0,1-1.131-.41,1.636,1.636,0,0,1-.452-1,0.171,0.171,0,0,1,.047-0.12,23.076,23.076,0,0,0,2.953-.27,0.818,0.818,0,0,0,.071-0.33A0.34,0.34,0,0,1,223,1550.55Zm8.75,2.9c-0.179-.05-0.286-0.06-0.453-0.12a0.368,0.368,0,0,1-.214-0.43c-0.024-.73-0.036-2.57-0.024-3.12a0.313,0.313,0,0,1,.167-0.33,2.346,2.346,0,0,1,.429-0.11,0.673,0.673,0,0,0,0-.43c-0.25,0-.56.04-1.322,0.04s-1.071-.04-1.333-0.04a0.743,0.743,0,0,0-.036.43,2.046,2.046,0,0,1,.321.08,0.367,0.367,0,0,1,.215.43,0.471,0.471,0,0,1-.06.22c-0.321.46-1.083,1.39-1.417,1.75-0.012.02-.059,0.02-0.059-0.03,0.012-.72.012-1.6,0.024-2.01a0.335,0.335,0,0,1,.273-0.39l0.3-.08a0.6,0.6,0,0,0,0-.41c-0.095,0-.5.04-1.345,0.04-0.715,0-1.155-.04-1.322-0.04a0.581,0.581,0,0,0-.036.4,2.507,2.507,0,0,1,.334.09,0.327,0.327,0,0,1,.262.35c0.012,0.4.024,0.86,0.024,1.33,0,0.55-.012,1.1-0.012,1.62,0,0.39,0,.59-0.3.69-0.119.02-.19,0.05-0.333,0.07a0.83,0.83,0,0,0,0,.42c0.238,0,.821-0.04,1.285-0.04,0.643,0,1.191.04,1.382,0.04a0.737,0.737,0,0,0,.047-0.42,2.97,2.97,0,0,1-.357-0.08c-0.179-.07-0.214-0.13-0.214-0.57a0.567,0.567,0,0,1,.059-0.23c0.31-.44,1.131-1.39,1.441-1.78,0.024-.05.071,0,0.071,0.05,0,0.79.024,1.63,0,2.22-0.012.21-.166,0.26-0.512,0.43a1.046,1.046,0,0,0,.012.38c0.262-.03.726-0.04,1.25-0.04,0.548,0,1.084.02,1.405,0.04A1.029,1.029,0,0,0,231.749,1553.45Zm4.417-3.45c0-.81-0.774-1.22-1.81-1.22a6.137,6.137,0,0,0-1.774.33c-0.024.26-.131,1.01-0.143,1.22a0.68,0.68,0,0,0,.393.11,1.351,1.351,0,0,1,1.048-1.16,0.822,0.822,0,0,1,.762.99,0.658,0.658,0,0,1-.727.73,2.725,2.725,0,0,1-.428-0.03,6.133,6.133,0,0,1-.131.63,3.249,3.249,0,0,1,.452-0.02,0.921,0.921,0,0,1,.965.97,0.76,0.76,0,0,1-.715.93c-0.488,0-.94-0.25-1.405-1.26a0.651,0.651,0,0,0-.393.17,4.276,4.276,0,0,0,.31,1.3,3.4,3.4,0,0,0,1.417.29c1.024,0,2.464-.4,2.464-1.64a1.337,1.337,0,0,0-1.286-1.21,0.041,0.041,0,0,1,0-.05A1.179,1.179,0,0,0,236.166,1550Zm9.607,3.45-0.381-.08a0.388,0.388,0,0,1-.3-0.46c-0.035-.98-0.047-2.46-0.035-3.14a0.274,0.274,0,0,1,.226-0.33,1.732,1.732,0,0,1,.405-0.1,0.673,0.673,0,0,0,0-.43c-0.322,0-.881.04-1.37,0.04a6.922,6.922,0,0,1-.738-0.03,24.431,24.431,0,0,1-1.047,2.55,0.027,0.027,0,0,1-.048,0c-0.214-.37-0.691-1.39-1.024-2.08a4.2,4.2,0,0,1-.179-0.49,4.33,4.33,0,0,1-.654.04c-0.477,0-1.25-.04-1.417-0.04a0.57,0.57,0,0,0-.036.4,2.691,2.691,0,0,1,.345.09,0.345,0.345,0,0,1,.262.36c0.024,0.85-.035,2.48-0.071,3.05-0.024.39-.095,0.52-0.75,0.65a0.989,0.989,0,0,0,0,.42c0.155,0,.666-0.04,1-0.04,0.369,0,.81.04,1.179,0.04a0.645,0.645,0,0,0,.023-0.42,4.577,4.577,0,0,1-.464-0.11,0.519,0.519,0,0,1-.369-0.49c-0.036-.64-0.012-1.68-0.012-2.54,0-.03.048-0.03,0.06-0.01,0.5,1.14,1.024,2.52,1.4,3.5a4.217,4.217,0,0,0,.453-0.09c0.393-1,1.024-2.7,1.31-3.38a0.018,0.018,0,0,1,.035,0c-0.012,1,0,2.3-.035,2.8-0.012.14-.1,0.25-0.56,0.32a0.57,0.57,0,0,0,.036.42c0.154-.02.75-0.04,1.393-0.04,0.5,0,1.083.04,1.309,0.04A0.522,0.522,0,0,0,245.773,1553.45Zm5.928,0a2.9,2.9,0,0,1-.368-0.07,0.374,0.374,0,0,1-.322-0.41c-0.024-.28-0.024-1.01-0.024-1.68s0-1.38.012-1.68a0.177,0.177,0,0,1,.131-0.2,4.111,4.111,0,0,1,.441-0.07,0.7,0.7,0,0,0,.071-0.43c-0.417-.01-1.405-0.04-2.036-0.04a6.052,6.052,0,0,0-1.929.21,1.307,1.307,0,0,0-.964,1.25,1.355,1.355,0,0,0,1.286,1.31,0.039,0.039,0,0,1,0,.05,1.463,1.463,0,0,0-.631.49c-0.167.18-.334,0.42-0.536,0.66a1.211,1.211,0,0,1-.94.61,0.435,0.435,0,0,0,0,.42,3.77,3.77,0,0,0,.5.03,2.427,2.427,0,0,0,1.572-.32,6.871,6.871,0,0,0,1.012-1.4,0.764,0.764,0,0,1,.524-0.46c0,0.5,0,.75-0.012,1.28a0.35,0.35,0,0,1-.31.39,2.341,2.341,0,0,1-.309.06,0.716,0.716,0,0,0,0,.42c0.405-.02.976-0.04,1.393-0.04s1,0.04,1.405.04A0.868,0.868,0,0,0,251.7,1553.45Zm5.072-.99a0.113,0.113,0,0,0-.072-0.08,1.907,1.907,0,0,1-1.273.48,1.466,1.466,0,0,1-1.286-.64,2.593,2.593,0,0,1-.369-1.39c0-.94.369-1.5,0.893-1.5a2.188,2.188,0,0,1,1.3.92,0.271,0.271,0,0,0,.179.02,2.048,2.048,0,0,0,.559-0.74,0.409,0.409,0,0,0,0-.24,0.761,0.761,0,0,0-.416-0.35,2.6,2.6,0,0,0-1.024-.16,3.778,3.778,0,0,0-1.774.52,2.53,2.53,0,0,0-1.2,2.13,2.721,2.721,0,0,0,.512,1.7,2.123,2.123,0,0,0,1.8.85,2.689,2.689,0,0,0,2.1-1.07A0.835,0.835,0,0,0,256.773,1552.46Zm5.238,0.56a1.194,1.194,0,0,1-.393.06,0.378,0.378,0,0,1-.321-0.46c0-.5.024-1.29,0.024-1.87a2.263,2.263,0,0,0-.3-1.23,1.657,1.657,0,0,0-1.417-.74,4.146,4.146,0,0,0-1.869.78,2.8,2.8,0,0,0-.25.79,0.571,0.571,0,0,0,.429.21,5.34,5.34,0,0,1,.393-0.72,0.844,0.844,0,0,1,.583-0.17,0.961,0.961,0,0,1,.81.38,1.014,1.014,0,0,1,.178.63,0.719,0.719,0,0,1-.012.16,0.174,0.174,0,0,1-.095.13c-0.441.2-1.917,0.55-2.262,0.77a2.049,2.049,0,0,0-.2.73,1.663,1.663,0,0,0,.465,1.21,1.051,1.051,0,0,0,.726.3,3.2,3.2,0,0,0,1.322-.59c0-.01.047-0.01,0.047,0.01a1.38,1.38,0,0,0,.06.21,0.689,0.689,0,0,0,.726.38,2.151,2.151,0,0,0,1.3-.48A1.425,1.425,0,0,0,262.011,1553.02Zm-2.238-.02a0.361,0.361,0,0,1-.262.07,0.8,0.8,0,0,1-.774-0.89,1.118,1.118,0,0,1,.095-0.4,6.3,6.3,0,0,1,1-.39,0.082,0.082,0,0,1,.036.06c0,0.21,0,.95-0.024,1.33A0.284,0.284,0,0,1,259.773,1553Zm-11.5-2.76a0.8,0.8,0,0,1,.869-0.84,1.384,1.384,0,0,1,.274.02,0.155,0.155,0,0,1,.071.15c0.012,0.44,0,1.18,0,1.71A1.043,1.043,0,0,1,248.273,1550.24Zm-28.12.51a0.087,0.087,0,0,1-.071-0.07c0-.82.262-1.42,0.666-1.42,0.453,0,.715.57,0.751,1.35a0.12,0.12,0,0,1-.072.11A7.553,7.553,0,0,1,220.153,1550.75Zm-5.286,0a0.087,0.087,0,0,1-.071-0.07c0-.82.262-1.42,0.666-1.42,0.453,0,.715.57,0.751,1.35a0.12,0.12,0,0,1-.072.11A7.553,7.553,0,0,1,214.867,1550.75Zm-32.548,0a0.087,0.087,0,0,1-.072-0.07c0-.82.262-1.42,0.667-1.42,0.452,0,.714.57,0.75,1.35a0.121,0.121,0,0,1-.071.11A7.556,7.556,0,0,1,182.319,1550.75Zm-10.6,2.7a1.186,1.186,0,0,1-.774-0.32,0.689,0.689,0,0,1-.166-0.39c-0.036-.56-0.024-1.67-0.024-2.55a0.064,0.064,0,0,1,.06-0.07c0.095-.01.238-0.01,0.369-0.01a1.566,1.566,0,0,1,1.75,1.68C172.938,1552.86,172.449,1553.45,171.723,1553.45Zm-0.345-3.86c-0.262,0-.452,0-0.559-0.01a0.061,0.061,0,0,1-.06-0.06c0-.8,0-2.01.024-2.37a0.277,0.277,0,0,1,.083-0.16,1.1,1.1,0,0,1,.262-0.04,1.372,1.372,0,0,1,1.5,1.53,1.069,1.069,0,0,1-.452,1A1.874,1.874,0,0,1,171.378,1549.59Z" transform="translate(-116 -1431)"/>
</svg>
